<?xml version="1.0" standalone="no"?>
<!DOCTYPE svg PUBLIC "-//W3C//DTD SVG 20010904//EN"
 "http://www.w3.org/TR/2001/REC-SVG-20010904/DTD/svg10.dtd">
<svg version="1.0" xmlns="http://www.w3.org/2000/svg"
 width="360.000000pt" height="360.000000pt" viewBox="0 0 360.000000 360.000000"
 preserveAspectRatio="xMidYMid meet">
<metadata>
Created by potrace 1.14, written by Peter Selinger 2001-2017
</metadata>
<g transform="translate(0.000000,360.000000) scale(0.100000,-0.100000)"
fill="#000000" stroke="none">
<path d="M135 3581 c-22 -10 -54 -34 -72 -52 -68 -72 -63 60 -63 -1729 0
-1789 -5 -1657 63 -1729 18 -18 50 -42 72 -52 38 -18 103 -19 1665 -19 1562 0
1627 1 1665 19 22 10 54 34 72 52 68 72 63 -61 63 1731 0 1560 -1 1625 -19
1663 -10 22 -34 54 -52 72 -72 68 61 63 -1731 63 -1560 0 -1625 -1 -1663 -19z
m1354 -1571 c184 -446 337 -807 341 -803 4 4 151 369 326 811 l318 802 288 0
288 0 -6 -32 c-13 -78 -11 -75 -61 -82 -57 -8 -99 -20 -170 -48 l-53 -20 0
-815 0 -814 46 -21 c26 -11 90 -29 143 -40 53 -11 96 -20 97 -21 1 -1 -1 -26
-3 -55 l-6 -52 -418 0 -419 0 6 48 c4 26 9 50 13 54 3 4 42 14 86 23 44 9 104
27 133 40 l52 24 0 702 c0 386 -2 700 -6 697 -3 -3 -141 -361 -308 -794 l-303
-789 -89 -3 -90 -3 -319 806 c-175 443 -322 805 -327 805 -4 0 -8 -319 -8
-709 l0 -708 58 -26 c43 -19 194 -57 228 -57 6 0 5 -77 -2 -94 -5 -14 -49 -16
-383 -16 l-377 0 6 50 c3 27 8 52 11 54 3 3 40 12 83 21 43 9 103 27 132 40
l54 24 0 814 0 814 -57 22 c-31 12 -97 30 -145 39 -65 12 -87 21 -83 30 3 8 5
31 5 53 l0 39 293 0 293 0 333 -810z"/>
</g>
</svg>
